<svg viewBox="0 0 24 24" fill="currentColor" aria-hidden="true"><path d="M12 .5C5.65.5.5 5.65.5 12c0 5.09 3.29 9.4 7.86 10.93.57.1.79-.25.79-.55 0-.27-.01-1.16-.02-2.11-3.2.7-3.87-1.36-3.87-1.36-.53-1.33-1.29-1.69-1.29-1.69-1.05-.72.08-.7.08-.7 1.16.08 1.77 1.19 1.77 1.19 1.03 1.77 2.7 1.26 3.36.96.1-.75.4-1.26.73-1.55-2.55-.29-5.24-1.28-5.24-5.68 0-1.25.45-2.28 1.19-3.08-.12-.29-.52-1.46.11-3.05 0 0 .97-.31 3.18 1.18a11 11 0 0 1 5.8 0c2.2-1.49 3.17-1.18 3.17-1.18.63 1.59.23 2.76.12 3.05.74.8 1.19 1.83 1.19 3.08 0 4.41-2.7 5.38-5.27 5.67.42.36.78 1.07.78 2.15 0 1.56-.01 2.81-.01 3.19 0 .31.21.66.8.55A10.5 10.5 0 0 0 23.5 12C23.5 5.65 18.35.5 12 .5z"/></svg>
